<?xml version="1.0"?>
<svg version="1.1" xmlns="http://www.w3.org/2000/svg" width="400" height="200" style="border: dashed 2px #aaa"><path fill="#000000" d="M39.06,115.39c0.03,0.51-0.12,0.81-0.69,0.81l-2.43,0c-0.63,0-0.75-0.3-0.78-0.99l-0.42-12.18l-0.06,0l-5.1,12.63c-0.18,0.48-0.48,0.54-0.81,0.54l-1.05,0c-0.45,0-0.72-0.09-0.93-0.57l-5.67-12.6l-0.06,0l-0.27,12.42c0,0.66-0.27,0.75-0.81,0.75l-2.04,0c-0.57,0-0.81-0.21-0.78-0.78l0.75-19.17c0.03-0.63,0.24-0.81,0.72-0.81l1.77,0c0.6,0,0.81,0.21,1.02,0.66l6.93,14.82l0.06,0l6.33-14.82c0.18-0.45,0.42-0.66,0.96-0.66l1.77,0c0.48,0,0.66,0.18,0.69,0.66z M60.015,115.84c0,0.24-0.18,0.36-0.45,0.36l-2.73,0c-0.54,0-0.9-0.15-1.17-0.6l-4.32-7.05l-2.31,0l0,6.9c0,0.45-0.18,0.75-0.69,0.75l-2.46,0c-0.51,0-0.72-0.24-0.72-0.75l0-19.14c0-0.66,0.15-0.87,0.81-0.87l4.44,0c2.61,0,5.37,0.39,6.96,2.22c0.96,1.11,1.44,2.58,1.44,4.2c0,2.76-1.47,4.92-3.87,5.97l4.92,7.59c0.09,0.15,0.15,0.3,0.15,0.42z M54.885,101.92c0-2.61-1.74-3.54-4.35-3.54l-1.5,0l0,7.26l1.86,0c2.4,0,3.99-1.29,3.99-3.72z M68.1,114.58c0,1.23-1.11,2.01-2.13,2.01c-1.05,0-2.13-0.72-2.13-1.98c0-1.29,1.02-2.04,2.13-2.04c1.08,0,2.13,0.75,2.13,2.01z M81.225,109.3c0,2.73-0.57,4.8-2.1,6c-0.99,0.78-2.43,1.2-4.38,1.2c-0.54,0-1.5-0.09-2.16-0.21c-0.36-0.06-0.48-0.24-0.48-0.48c0-0.09,0-0.18,0.03-0.3l0.3-1.68c0.06-0.27,0.15-0.48,0.51-0.48c0.06,0,0.12,0.03,0.21,0.03c0.54,0.09,1.14,0.18,1.59,0.18c0.78,0,1.59-0.27,2.01-0.81c0.42-0.57,0.63-1.5,0.63-2.79l0-12l-3.39,0c-0.48,0-0.63-0.3-0.63-0.66l0-1.23c0-0.42,0.21-0.63,0.63-0.63l6.51,0c0.45,0,0.72,0.27,0.72,0.69l0,13.17z M101.01,101.98c0,4.65-3.51,6.93-7.92,6.93c-0.24,0-1.59-0.06-1.8-0.09l0,6.66c0,0.45-0.18,0.72-0.75,0.72l-2.4,0c-0.48,0-0.72-0.21-0.72-0.81l0-19.14c0-0.6,0.18-0.81,0.75-0.81l4.35,0c3.18,0,5.52,0.6,6.99,2.28c0.96,1.11,1.5,2.64,1.5,4.26z M97.11,102.13c0-2.73-1.68-3.69-4.26-3.69l-1.56,0l0,7.44c0.24,0,1.59,0.03,1.77,0.03c2.55,0,4.05-1.2,4.05-3.78z"/><path fill="#" d=""/></svg>
