<svg width="785" height="589" viewBox="0 0 785 589" fill="none" xmlns="http://www.w3.org/2000/svg">
<path d="M246.667 421.878L248.707 426.6L242.404 451.251C242.005 452.774 242.044 454.378 242.514 455.879C242.984 457.381 243.867 458.72 245.062 459.742L276.312 413.471C277.744 411.341 278.371 408.77 278.08 406.219C277.789 403.668 276.599 401.305 274.723 399.554L267.734 393.057L246.667 421.878Z" fill="black"/>
<path d="M229.948 128.961C239.729 128.727 252.135 128.107 249.644 120.588C247.152 113.069 237.94 94.5136 216.789 100.09C216.789 100.09 209.349 106.303 218.645 117.49C227.941 128.677 229.948 128.961 229.948 128.961Z" fill="#2A1E33"/>
<path d="M279.472 399.889C279.472 399.889 262.752 350.487 276.897 328.8C288.601 310.898 326.688 340.003 331.905 343.872L359.175 294.603C359.175 294.603 352.888 285.761 337.439 277.103C321.99 268.445 258.137 242.521 228.125 289.947C217.04 307.465 216.873 382.674 238.157 411.495L279.472 399.889Z" fill="#3B3B5F"/>
<path d="M279.472 399.889C279.472 399.889 262.752 350.487 276.897 328.8C288.601 310.897 326.688 340.003 331.905 343.872" stroke="white" stroke-linecap="round" stroke-linejoin="round"/>
<path d="M359.175 294.603C346.769 307.682 310.002 371.386 301.726 401.782C290.674 442.51 294.837 476.288 355.63 542.454L385.007 499.582C385.007 499.582 364.341 468.165 368.287 438.541C373.872 395.686 404.318 354.137 419.717 327.778L359.175 294.603Z" fill="#3B3B5F"/>
<path d="M363.84 300.129L412.712 338.563L427.325 316.323L363.84 300.129Z" fill="#8C3C6C"/>
<path d="M644.599 259.736C652.223 261.377 658.03 264.286 662.021 268.461C666.017 272.648 664.211 274.825 662.757 276.098C661.302 277.37 655.667 275.913 650.768 271.559C645.87 267.205 644.599 259.736 644.599 259.736Z" fill="#FF8A66"/>
<path d="M494.188 251.179C495.458 249.504 515.672 227.917 527.376 210.534C527.376 210.534 562.739 250.224 566.584 251.514C568.005 251.982 576.616 251.865 587.451 251.765C605.642 251.564 629.835 251.38 635.186 254.076C643.713 258.329 648.829 260.473 650.952 266.452C653.076 272.43 653.929 276.332 648.829 276.684C642.86 277.119 639.031 269.432 639.031 269.432C633.409 272.457 627.555 275.027 621.526 277.119C621.526 277.119 576.198 294.737 545.902 286.213C537.659 283.885 494.188 251.179 494.188 251.179Z" fill="#F9865F"/>
<path d="M219.431 92.638C215.552 94.1285 213.178 95.9036 215.435 99.6549C217.692 103.406 218.678 101.916 225.182 101.33C231.686 100.743 240.949 105.583 244.193 113.605C247.436 121.627 246.45 122.866 244.694 123.871C242.939 124.875 230.449 126.383 229.948 128.895C229.446 131.407 234.964 138.792 246.517 138.306L249.259 137.804C249.259 137.804 273.452 161.467 276.964 164.967C280.475 168.467 306.19 185.934 320.435 189.484C331.203 192.18 353.039 188.714 366.147 186.135C372.517 184.879 376.848 183.857 376.848 183.857C376.848 183.857 367 166.089 364.993 138.792C364.993 138.792 341.452 142.577 325.802 146.026C325.802 146.026 289.286 125.629 271.53 116.603C271.53 116.603 256.014 97.5783 248.757 95.0663C241.501 92.5543 224.681 90.6452 219.431 92.638Z" fill="#F9865F"/>
<path d="M366.08 186.218C372.45 184.962 376.781 183.941 376.781 183.941C376.781 183.941 364.86 168.869 362.87 141.605C362.87 141.605 357.486 147.416 359.158 162.873C361.265 182.4 366.08 186.218 366.08 186.218Z" fill="white"/>
<path d="M362.368 138.541C362.368 138.541 362.703 171.917 371.631 185.833L374.825 184.544C374.825 184.544 332.774 233.829 319.164 266.033C316.941 271.308 406.492 328.599 419.717 327.795C419.717 327.795 463.356 261.093 478.237 241.315L494.288 253.775C494.288 253.775 525.738 221.855 527.426 210.535C527.426 210.535 497.046 173.508 472.251 162.656C447.455 151.804 425.068 133.249 398.366 133.835C375.259 134.187 362.368 138.541 362.368 138.541Z" fill="#471C36"/>
<path d="M494.221 253.774L478.187 241.315L480.745 234.348L494.221 253.774Z" fill="white"/>
<path d="M518.632 121.827C515.823 130.586 507.714 155.89 498.668 159.005C489.623 162.12 480.277 158.218 480.277 158.218L470.646 163.141C469.576 166.373 461.968 169.153 452.154 169.539C444.881 169.823 440.45 160.462 442.607 153.696C443.593 150.581 447.288 135.275 447.288 135.275C447.288 135.275 455.08 106.538 462.336 100.609C469.593 94.6809 476.247 88.786 495.391 96.5398C524.551 108.396 518.632 121.827 518.632 121.827Z" fill="#F9865F"/>
<path d="M460.497 123.083C459.21 128.442 453.642 139.194 449.98 137.251C446.319 135.309 445.048 130.385 447.623 120.923C450.198 111.461 452.354 89.992 459.644 86.1235C466.934 82.255 470.161 86.7599 470.161 86.7599C470.161 86.7599 466.934 71.085 476.381 68.9247C476.381 68.9247 479.591 67.4342 478.304 78.1689C479.554 75.2171 481.754 72.7685 484.553 71.212C487.352 69.6555 490.59 69.0803 493.753 69.5778C505.457 70.8673 509.62 87.413 509.62 87.413C509.959 86.0464 510.769 84.8434 511.907 84.0162C513.044 83.189 514.437 82.7907 515.84 82.8914C521.207 82.8914 529.366 90.8461 527.426 99.6381C527.426 99.6381 541.153 95.3342 548.443 106.337C555.733 117.339 554.88 129.33 537.291 134.053C518.899 138.993 519.067 117.507 516.274 114.71C513.482 111.913 510.489 108.698 500.19 112.567C489.89 116.435 479.156 105.047 479.156 105.047C479.156 105.047 477.484 118.796 475.729 120.119C473.973 121.442 470.579 123.134 471.432 116.686C472.284 110.239 473.371 110.875 472.719 109.167C472.067 107.459 469.175 102.016 463.072 106.806C456.217 112.064 460.497 123.083 460.497 123.083Z" fill="#2A1E33"/>
<path d="M463.423 125.461C459.327 122.112 456.484 115.949 460.079 109.887C463.674 103.825 469.576 103.004 471.365 105.298C473.154 107.593 473.856 111.461 472.167 116.05" stroke="#2A1E33" stroke-linecap="round" stroke-linejoin="round"/>
<path d="M362.853 536.207L364.893 540.913L358.59 565.564C358.191 567.086 358.23 568.691 358.7 570.192C359.17 571.694 360.053 573.033 361.248 574.055L392.464 527.783C393.897 525.654 394.524 523.083 394.232 520.532C393.941 517.981 392.751 515.618 390.876 513.867L383.887 507.369L362.853 536.207Z" fill="black"/>
<!-- <path d="M470.161 86.7597C470.161 86.7597 467.753 78.9724 460.581 76.9126" stroke="#2A1E33" stroke-linecap="round" stroke-linejoin="round"/> -->
<path d="M318.094 263.672L404.67 142.543" stroke="white" stroke-linecap="round" stroke-linejoin="round"/>
<path d="M440.366 151.017C437.24 155.086 435.819 172.57 450.181 173.692C458.372 174.508 466.61 172.696 473.706 168.517" stroke="white" stroke-linecap="round" stroke-linejoin="round"/>
<path d="M248.674 95.1499C248.674 95.1499 258.572 108.263 260.127 112.935" stroke="white" stroke-linecap="round" stroke-linejoin="round"/>
<path d="M619.252 271.04C619.252 271.04 625.939 276.483 639.031 269.365C643.796 266.803 640.402 260.758 634.35 262.265C628.297 263.772 621.141 261.511 621.141 261.511" stroke="white" stroke-linecap="round" stroke-linejoin="round"/>
<path d="M646.873 260.49C646.873 260.49 653.21 267.909 653.042 272.313" stroke="white" stroke-linecap="round" stroke-linejoin="round"/>
<path d="M553.509 259.686C553.509 259.686 559.244 252.033 566.584 251.514" stroke="white" stroke-linecap="round" stroke-linejoin="round"/>
<path d="M311.657 158.469C311.657 158.469 315.001 148.019 325.735 146.11" stroke="white" stroke-linecap="round" stroke-linejoin="round"/>
<path d="M340.733 317.027L327.926 341.494C327.926 341.494 285.725 413.019 300.054 459.239" stroke="white" stroke-linecap="round" stroke-linejoin="round"/>
<path d="M378.118 399.085L419.634 327.795C419.634 327.795 474.057 248.734 479.624 237.664L498.836 202.077" stroke="white" stroke-linecap="round" stroke-linejoin="round"/>
<path d="M323.913 271.275C323.913 271.275 397.764 325.199 419.65 327.795" stroke="white" stroke-linecap="round" stroke-linejoin="round"/>
<path d="M362.368 138.541C362.368 138.541 362.368 172.386 371.414 186.252" stroke="white" stroke-linecap="round" stroke-linejoin="round"/>
<path d="M525.002 205.175C522.678 219.109 491.863 248.399 491.863 248.399" stroke="white" stroke-linecap="round" stroke-linejoin="round"/>
<path d="M295.004 378.872C297.424 378.872 299.385 376.908 299.385 374.484C299.385 372.061 297.424 370.097 295.004 370.097C292.585 370.097 290.624 372.061 290.624 374.484C290.624 376.908 292.585 378.872 295.004 378.872Z" fill="white"/>
<path d="M706.379 468.852L703.954 452.055L718.25 461.584L710.776 463.208L706.379 468.852Z" stroke="white" stroke-linecap="round" stroke-linejoin="round"/>
<path d="M231.954 182.099C204.851 158.134 160.059 217.87 323.913 408.011C418.463 517.702 492.783 527.532 502.815 489.367C520.872 420.906 455.665 403.607 479.942 430.418C515.221 469.405 615.556 477.644 690.344 441.27C764.129 405.365 718.768 349.616 714.187 346.35" stroke="white" stroke-linecap="round" stroke-linejoin="round"/>
<path d="M691.582 445.306C694.001 445.306 695.962 443.342 695.962 440.919C695.962 438.495 694.001 436.531 691.582 436.531C689.162 436.531 687.201 438.495 687.201 440.919C687.201 443.342 689.162 445.306 691.582 445.306Z" fill="white"/>
<path d="M627.779 476.773L757.742 403.389" stroke="white" stroke-linecap="round" stroke-linejoin="round"/>
<path d="M234.663 190.037C237.082 190.037 239.043 188.072 239.043 185.649C239.043 183.226 237.082 181.261 234.663 181.261C232.243 181.261 230.282 183.226 230.282 185.649C230.282 188.072 232.243 190.037 234.663 190.037Z" fill="white"/>
<path d="M346.468 104.394C351.667 104.394 355.881 100.173 355.881 94.9656C355.881 89.7585 351.667 85.5372 346.468 85.5372C341.269 85.5372 337.055 89.7585 337.055 94.9656C337.055 100.173 341.269 104.394 346.468 104.394Z" fill="#FF6D66"/>
<path d="M175.792 23.1059C174.971 23.1026 174.168 23.3433 173.484 23.7977C172.8 24.252 172.266 24.8995 171.949 25.6581C171.633 26.4166 171.548 27.2522 171.706 28.059C171.865 28.8657 172.258 29.6073 172.837 30.1898C173.417 30.7723 174.155 31.1695 174.96 31.3312C175.765 31.4928 176.6 31.4115 177.358 31.0977C178.117 30.7838 178.766 30.2515 179.222 29.5682C179.678 28.8848 179.922 28.0812 179.922 27.2591C179.922 26.1605 179.487 25.1066 178.713 24.3282C177.939 23.5498 176.889 23.1103 175.792 23.1059Z" fill="#A0C6F4"/>
<path d="M729.87 537.53C732.151 537.53 734 535.678 734 533.394C734 531.109 732.151 529.257 729.87 529.257C727.589 529.257 725.74 531.109 725.74 533.394C725.74 535.678 727.589 537.53 729.87 537.53Z" fill="#FAD8B0"/>
<path d="M655.985 346.333L611.494 325.45C610.709 325.062 610.051 324.459 609.594 323.712C609.138 322.964 608.902 322.103 608.915 321.227C608.927 320.35 609.187 319.496 609.664 318.761C610.141 318.027 610.816 317.443 611.611 317.077L694.307 280.636C694.886 280.379 695.513 280.247 696.146 280.247C696.779 280.247 697.406 280.379 697.985 280.636L754.833 305.053L655.985 346.333Z" fill="#2A1E33"/>
<path d="M653.293 277.672C653.393 296.093 656.035 346.334 656.035 346.334L754.883 304.986L752.659 235.069C752.63 234.077 752.356 233.108 751.863 232.248C751.369 231.388 750.671 230.664 749.83 230.14C748.989 229.616 748.031 229.309 747.043 229.245C746.055 229.182 745.066 229.364 744.165 229.777L659.078 268.629C657.342 269.412 655.871 270.684 654.844 272.289C653.817 273.895 653.278 275.765 653.293 277.672Z" fill="#121212"/>
<path d="M655.985 346.333L754.833 304.986L752.609 235.068C752.609 235.068 751.957 227.432 744.115 229.776" stroke="white" stroke-linecap="round" stroke-linejoin="round"/>
<path d="M703.82 296.076L710.492 280.284" stroke="white" stroke-linecap="round" stroke-linejoin="round"/>
<path d="M710.492 296.076L717.163 280.284" stroke="white" stroke-linecap="round" stroke-linejoin="round"/>
<path d="M249.761 549.454L234.094 553.724" stroke="white" stroke-linecap="round" stroke-linejoin="round"/>
<path d="M646.505 186.402H631.541V201.391H646.505V186.402Z" fill="#FFE1C0"/>
<path d="M633.564 388.518L638.011 396.239L642.459 403.959H633.564H624.686L629.116 396.239L633.564 388.518Z" fill="#A0C6F4"/>
<path d="M34.7438 274.138H47.2168" stroke="#FF6D66" stroke-linecap="round" stroke-linejoin="round"/>
<path d="M729.87 123.803H742.343" stroke="#FF6D66" stroke-linecap="round" stroke-linejoin="round"/>
<path d="M395.223 38.0605H407.713" stroke="#FAD8B0" stroke-miterlimit="10"/>
<path d="M753.696 188.63L765.968 190.84" stroke="#FAD8B0" stroke-miterlimit="10"/>
<path d="M263.504 500.503H275.994" stroke="#A0C6F4" stroke-linecap="round" stroke-linejoin="round"/>
<path d="M780.581 348.829C782.862 348.829 784.711 346.977 784.711 344.692C784.711 342.408 782.862 340.556 780.581 340.556C778.3 340.556 776.451 342.408 776.451 344.692C776.451 346.977 778.3 348.829 780.581 348.829Z" fill="#91BA83"/>
<path d="M4.12979 150.18C6.41061 150.18 8.25959 148.328 8.25959 146.043C8.25959 143.759 6.41061 141.907 4.12979 141.907C1.84897 141.907 0 143.759 0 146.043C0 148.328 1.84897 150.18 4.12979 150.18Z" fill="#91BA83"/>
<defs>
<linearGradient id="paint0_linear_16_174" x1="150.244" y1="250.024" x2="229.354" y2="250.297" gradientUnits="userSpaceOnUse">
<stop stop-color="#AA367C"/>
<stop offset="1" stop-color="#4A2FBD"/>
</linearGradient>
<linearGradient id="paint1_linear_16_174" x1="109.878" y1="301.97" x2="242.514" y2="302.276" gradientUnits="userSpaceOnUse">
<stop stop-color="#AA367C"/>
<stop offset="1" stop-color="#4A2FBD"/>
</linearGradient>
<linearGradient id="paint2_linear_16_174" x1="497.955" y1="330.243" x2="576.769" y2="330.466" gradientUnits="userSpaceOnUse">
<stop stop-color="#AA367C"/>
<stop offset="1" stop-color="#4A2FBD"/>
</linearGradient>
<linearGradient id="paint3_linear_16_174" x1="410.422" y1="402.211" x2="580.551" y2="403.021" gradientUnits="userSpaceOnUse">
<stop stop-color="#AA367C"/>
<stop offset="1" stop-color="#4A2FBD"/>
</linearGradient>
</defs>
</svg>
